<svg width="439" height="421" viewBox="0 0 439 421" fill="none" xmlns="http://www.w3.org/2000/svg">
<path d="M204.597 1C204.597 0.447715 205.044 0 205.597 0H244.42C245.037 0 245.506 0.55259 245.407 1.16113L229.734 97.1611C229.655 97.6448 229.237 98 228.747 98H205.597C205.044 98 204.597 97.5523 204.597 97V1Z" fill="#B3242B"/>
<path fill-rule="evenodd" clip-rule="evenodd" d="M218.853 405.015C210.616 410.093 201.707 413.975 192.187 416.491C118.769 435.898 36.8266 366.793 9.16249 262.14C-18.5016 157.487 18.5888 56.9157 92.0062 37.5085C135.995 25.8806 183.044 46.0277 219.645 86.5576C256.163 46.4501 302.951 26.5725 346.711 38.1399C420.128 57.5471 457.219 158.118 429.554 262.771C401.89 367.424 319.948 436.53 246.53 417.123C236.619 414.503 227.37 410.404 218.853 405.015Z" fill="#B3242B"/>
</svg>
